<?xml version="1.0" standalone="no"?>
<!DOCTYPE svg PUBLIC "-//W3C//DTD SVG 20010904//EN"
 "http://www.w3.org/TR/2001/REC-SVG-20010904/DTD/svg10.dtd">
<svg version="1.0" xmlns="http://www.w3.org/2000/svg"
 width="250.000000pt" height="250.000000pt" viewBox="0 0 250.000000 250.000000"
 preserveAspectRatio="xMidYMid meet">

<g transform="translate(0.000000,250.000000) scale(0.100000,-0.100000)"
fill="#000000" stroke="none">
<path d="M0 1250 l0 -1250 1250 0 1250 0 0 1250 0 1250 -1250 0 -1250 0 0
-1250z m1318 598 c32 -32 -4 -87 -48 -73 -25 8 -37 50 -20 70 15 18 51 20 68
3z m-334 -31 c26 -19 18 -68 -14 -84 -32 -16 -64 3 -68 39 -6 47 43 73 82 45z
m600 -30 c26 -19 18 -61 -12 -65 -44 -7 -67 32 -36 62 19 19 25 20 48 3z m621
-108 c-237 -242 -557 -481 -912 -682 -92 -53 -187 -109 -211 -127 -112 -81
-110 -198 4 -299 l47 -41 -205 0 -204 0 -26 27 c-45 48 -62 93 -62 163 0 74
16 112 69 163 52 51 121 84 420 202 149 59 347 146 440 193 187 95 440 259
580 375 50 42 94 76 100 76 5 1 -13 -22 -40 -50z m-440 -49 c0 -18 -6 -26 -23
-28 -24 -4 -38 18 -28 44 3 9 15 14 28 12 17 -2 23 -10 23 -28z m-1087 -70
c27 -26 28 -64 2 -90 -61 -61 -147 24 -88 87 27 28 57 29 86 3z m-180 -406
c30 -21 30 -77 0 -98 -46 -32 -100 -6 -100 49 0 55 54 81 100 49z"/>
</g>
</svg>
