<?xml version="1.0" standalone="no"?>
<!DOCTYPE svg PUBLIC "-//W3C//DTD SVG 20010904//EN"
 "http://www.w3.org/TR/2001/REC-SVG-20010904/DTD/svg10.dtd">
<svg version="1.0" xmlns="http://www.w3.org/2000/svg"
 width="400.000000pt" height="400.000000pt" viewBox="0 0 400.000000 400.000000"
 preserveAspectRatio="xMidYMid meet">

<g transform="translate(0.000000,400.000000) scale(0.100000,-0.100000)"
fill="#000000" stroke="none">
<path d="M0 2000 l0 -2000 2000 0 2000 0 0 2000 0 2000 -2000 0 -2000 0 0
-2000z m1211 1054 c-30 -140 -45 -295 -44 -469 3 -615 238 -1186 670 -1624 62
-63 112 -116 110 -118 -9 -8 -302 19 -407 38 -188 33 -404 93 -525 145 l-40
18 50 8 c102 17 226 52 241 70 27 29 9 59 -64 108 -95 64 -268 239 -335 340
-171 261 -245 520 -234 820 3 80 10 159 15 175 l9 30 8 -40 c23 -116 139 -390
172 -402 26 -10 40 18 52 104 26 187 105 445 193 633 42 89 140 262 145 256 2
-1 -6 -43 -16 -92z m1605 -16 c127 -226 215 -472 262 -730 27 -151 37 -172 70
-146 27 22 110 209 137 308 37 131 37 131 48 80 17 -79 13 -355 -6 -453 -73
-367 -279 -682 -580 -886 -43 -29 -48 -36 -45 -64 3 -29 8 -34 56 -50 30 -9
94 -25 143 -35 49 -9 89 -20 89 -23 0 -3 -69 -29 -152 -57 -234 -77 -452 -118
-733 -137 l-90 -6 121 123 c140 143 206 223 300 368 340 521 452 1147 318
1783 -3 15 -3 27 0 27 3 0 31 -46 62 -102z m-811 -278 c20 -92 108 -205 196
-251 24 -12 71 -30 104 -39 l60 -17 -41 -7 c-60 -11 -152 -57 -201 -102 -55
-50 -110 -144 -119 -200 -8 -57 -20 -64 -28 -16 -16 95 -103 216 -196 270 -25
15 -74 34 -109 43 l-64 16 44 7 c147 22 303 175 326 319 7 43 16 35 28 -23z"/>
</g>
</svg>
