<?xml version="1.0" standalone="no"?>
<!DOCTYPE svg PUBLIC "-//W3C//DTD SVG 20010904//EN"
 "http://www.w3.org/TR/2001/REC-SVG-20010904/DTD/svg10.dtd">
<svg version="1.0" xmlns="http://www.w3.org/2000/svg"
 width="262.000000pt" height="192.000000pt" viewBox="0 0 262.000000 192.000000"
 preserveAspectRatio="xMidYMid meet">

<g transform="translate(0.000000,192.000000) scale(0.100000,-0.100000)"
fill="#000000" stroke="none">
<path d="M247 1913 c-24 -6 -248 -453 -241 -480 9 -32 1049 -1407 1075 -1420
17 -9 86 -13 229 -13 143 0 212 4 229 13 26 13 1066 1388 1075 1420 3 12 -38
105 -109 247 -90 180 -119 229 -137 234 -13 3 -222 6 -466 6 -369 0 -444 -2
-448 -14 -7 -19 91 -212 111 -220 9 -3 140 -6 290 -6 150 0 281 -3 290 -6 21
-8 115 -195 115 -229 0 -17 -127 -195 -421 -587 -232 -310 -433 -575 -447
-590 -22 -24 -33 -28 -82 -28 -49 0 -60 4 -82 28 -14 15 -215 280 -447 589
-295 395 -421 570 -421 588 0 34 94 221 115 229 9 3 140 6 290 6 150 0 281 3
290 6 20 8 118 201 111 220 -4 12 -79 14 -453 13 -246 -1 -456 -3 -466 -6z"/>
<path d="M1190 1670 l-115 -230 -223 0 c-123 0 -222 -4 -220 -8 6 -16 673
-941 678 -941 5 0 672 925 678 941 2 4 -97 8 -220 8 l-223 0 -115 230 c-63
127 -117 230 -120 230 -3 0 -57 -103 -120 -230z"/>
</g>
</svg>
