<?xml version="1.0" standalone="no"?>
<!DOCTYPE svg PUBLIC "-//W3C//DTD SVG 20010904//EN"
 "http://www.w3.org/TR/2001/REC-SVG-20010904/DTD/svg10.dtd">
<svg version="1.0" xmlns="http://www.w3.org/2000/svg"
 width="800.000000pt" height="800.000000pt" viewBox="0 0 800.000000 800.000000"
 preserveAspectRatio="xMidYMid meet">

<g transform="translate(0.000000,800.000000) scale(0.100000,-0.100000)"
fill="#000000" stroke="none">
<path d="M742 6998 l-181 -302 62 -40 c34 -21 531 -324 1104 -672 l1042 -634
1252 0 1252 0 801 487 c1221 742 1390 845 1399 853 4 4 -74 143 -173 308
l-181 302 -3098 0 -3098 0 -181 -302z"/>
<path d="M342 6347 c-9 -11 -219 -347 -302 -483 l-38 -60 87 -142 c47 -77 761
-1225 1586 -2551 l1500 -2410 313 -1 312 0 0 1125 0 1125 -601 1017 c-330 560
-608 1025 -617 1035 -14 13 -2140 1310 -2208 1346 -17 9 -24 9 -32 -1z"/>
<path d="M6524 5682 l-1111 -677 -35 -60 c-19 -33 -292 -496 -606 -1028 l-572
-968 0 -1118 0 -1118 53 -7 c28 -3 167 -6 309 -6 l256 0 1530 2458 c841 1351
1555 2499 1587 2551 57 93 58 93 42 125 -31 62 -322 520 -332 522 -5 1 -510
-302 -1121 -674z"/>
</g>
</svg>
